<svg width="64" height="64" viewBox="0 0 64 64" fill="none" xmlns="http://www.w3.org/2000/svg">
  <!-- サムライヘルメットのメイン部分 -->
  <path d="M32 8C24 8 18 14 18 22V28C18 32 20 36 24 38L26 40H38L40 38C44 36 46 32 46 28V22C46 14 40 8 32 8Z" fill="#1e3a8a"/>
  
  <!-- ヘルメットの前部分 -->
  <path d="M20 30C20 28 22 26 24 26H40C42 26 44 28 44 30V32C44 34 42 36 40 36H24C22 36 20 34 20 32V30Z" fill="#1e40af"/>
  
  <!-- 額の部分 -->
  <rect x="28" y="26" width="8" height="4" fill="#d4af37" rx="1"/>
  
  <!-- AI文字 -->
  <text x="32" y="29" text-anchor="middle" font-family="Arial, sans-serif" font-size="6" font-weight="bold" fill="white">AI</text>
  
  <!-- ヘルメットの側面装飾 -->
  <path d="M16 24C16 20 18 18 20 18H24C26 18 28 20 28 22V26C28 28 26 30 24 30H20C18 30 16 28 16 26V24Z" fill="#1e3a8a"/>
  <path d="M36 24C36 20 38 18 40 18H44C46 18 48 20 48 22V26C48 28 46 30 44 30H40C38 30 36 28 36 26V24Z" fill="#1e3a8a"/>
  
  <!-- ヘルメットの頂部装飾 -->
  <path d="M30 6C30 4 31 2 32 2C33 2 34 4 34 6V8H30V6Z" fill="#d4af37"/>
  <path d="M28 4C28 2 29 0 30 0C31 0 32 2 32 4V6H28V4Z" fill="#d4af37"/>
  <path d="M32 4C32 2 33 0 34 0C35 0 36 2 36 4V6H32V4Z" fill="#d4af37"/>
  
  <!-- ヘルメットの縁 -->
  <path d="M18 28C18 26 20 24 22 24H42C44 24 46 26 46 28V30C46 32 44 34 42 34H22C20 34 18 32 18 30V28Z" fill="#0b275a"/>
</svg>



